<svg xmlns="http://www.w3.org/2000/svg" width="600" height="400" viewBox="0 0 600 400"><rect width="100%" height="100%" fill="#EEE"/><path fill="#31343C" d="M176.15 219.1q1.1 0 1.95.85l5.3 5.75q-4.4 5.45-10.82 8.35-6.43 2.9-15.43 2.9-8.05 0-14.47-2.75-6.43-2.75-10.98-7.65t-6.97-11.7q-2.43-6.8-2.43-14.85 0-8.15 2.6-14.93 2.6-6.77 7.33-11.67 4.72-4.9 11.27-7.63 6.55-2.72 14.5-2.72 7.9 0 14.03 2.6 6.12 2.6 10.42 6.8l-4.5 6.25q-.4.6-1.02 1.05-.63.45-1.73.45-.75 0-1.55-.43-.8-.42-1.75-1.05-.95-.62-2.2-1.37t-2.9-1.38q-1.65-.62-3.82-1.05-2.18-.42-5.03-.42-4.85 0-8.87 1.72-4.03 1.73-6.93 5-2.9 3.28-4.5 8-1.6 4.73-1.6 10.78 0 6.1 1.73 10.85 1.72 4.75 4.67 8t6.95 4.97q4 1.73 8.6 1.73 2.75 0 4.98-.3 2.22-.3 4.1-.95 1.87-.65 3.55-1.68 1.67-1.02 3.32-2.52.5-.45 1.05-.73.55-.27 1.15-.27m37.25-35.05q5.7 0 10.38 1.85 4.67 1.85 8 5.25 3.32 3.4 5.12 8.3t1.8 10.95q0 6.1-1.8 11t-5.12 8.35q-3.33 3.45-8 5.3-4.68 1.85-10.38 1.85-5.75 0-10.45-1.85t-8.02-5.3q-3.33-3.45-5.15-8.35-1.83-4.9-1.83-11 0-6.05 1.83-10.95 1.82-4.9 5.15-8.3 3.32-3.4 8.02-5.25t10.45-1.85m0 43.35q6.4 0 9.48-4.3 3.07-4.3 3.07-12.6t-3.07-12.65q-3.08-4.35-9.48-4.35-6.5 0-9.62 4.38-3.13 4.37-3.13 12.62t3.13 12.57q3.12 4.33 9.62 4.33m45.45-40.3.85 4.05q1.55-1.55 3.28-2.88 1.72-1.32 3.65-2.25 1.92-.92 4.12-1.45 2.2-.52 4.8-.52 4.2 0 7.45 1.42 3.25 1.43 5.43 4 2.17 2.58 3.3 6.15 1.12 3.58 1.12 7.88v32.65H280.5V203.5q0-4.7-2.15-7.28-2.15-2.57-6.55-2.57-3.2 0-6 1.45t-5.3 3.95v37.1h-12.35v-51.3h7.55q2.4 0 3.15 2.25m62.8 49.85q-6.7 0-10.27-3.78-3.58-3.77-3.58-10.42V194.1h-5.25q-1 0-1.7-.65t-.7-1.95v-4.9l8.25-1.35 2.6-14q.25-1 .95-1.55t1.8-.55h6.4v16.15h13.7v8.8h-13.7v27.8q0 2.4 1.18 3.75 1.17 1.35 3.22 1.35 1.15 0 1.93-.28.77-.27 1.35-.57.57-.3 1.02-.58.45-.27.9-.27.55 0 .9.27.35.28.75.83l3.7 6q-2.7 2.25-6.2 3.4t-7.25 1.15m47.2-14.05v-8.65q-5.35.25-9 .92-3.65.68-5.85 1.73t-3.15 2.45-.95 3.05q0 3.25 1.93 4.65 1.92 1.4 5.02 1.4 3.8 0 6.58-1.38 2.77-1.37 5.42-4.17m-26.1-26.95-2.2-3.95q8.85-8.1 21.3-8.1 4.5 0 8.05 1.47 3.55 1.48 6 4.1 2.45 2.63 3.73 6.28 1.27 3.65 1.27 8v32.4h-5.6q-1.75 0-2.7-.53-.95-.52-1.5-2.12l-1.1-3.7q-1.95 1.75-3.8 3.07-1.85 1.33-3.85 2.23t-4.27 1.38q-2.28.47-5.03.47-3.25 0-6-.88-2.75-.87-4.75-2.62t-3.1-4.35-1.1-6.05q0-1.95.65-3.88.65-1.92 2.13-3.67 1.47-1.75 3.82-3.3t5.78-2.7q3.42-1.15 7.97-1.88 4.55-.72 10.4-.87v-3q0-5.15-2.2-7.63-2.2-2.47-6.35-2.47-3 0-4.97.7-1.98.7-3.48 1.57-1.5.88-2.72 1.58-1.23.7-2.73.7-1.3 0-2.2-.68-.9-.67-1.45-1.57m66.85 41q-6.7 0-10.27-3.78-3.58-3.77-3.58-10.42V194.1h-5.25q-1 0-1.7-.65t-.7-1.95v-4.9l8.25-1.35 2.6-14q.25-1 .95-1.55t1.8-.55h6.4v16.15h13.7v8.8h-13.7v27.8q0 2.4 1.18 3.75 1.17 1.35 3.22 1.35 1.15 0 1.93-.28.77-.27 1.35-.57.57-.3 1.02-.58.45-.27.9-.27.55 0 .9.27.35.28.75.83l3.7 6q-2.7 2.25-6.2 3.4t-7.25 1.15m42.8-52.9q5.7 0 10.38 1.85 4.67 1.85 8 5.25 3.32 3.4 5.12 8.3t1.8 10.95q0 6.1-1.8 11t-5.12 8.35q-3.33 3.45-8 5.3-4.68 1.85-10.38 1.85-5.75 0-10.45-1.85t-8.02-5.3q-3.33-3.45-5.15-8.35-1.83-4.9-1.83-11 0-6.05 1.83-10.95 1.82-4.9 5.15-8.3 3.32-3.4 8.02-5.25t10.45-1.85m0 43.35q6.4 0 9.48-4.3 3.07-4.3 3.07-12.6t-3.07-12.65q-3.08-4.35-9.48-4.35-6.5 0-9.62 4.38-3.13 4.37-3.13 12.62t3.13 12.57q3.12 4.33 9.62 4.33"/></svg>