<svg xmlns="http://www.w3.org/2000/svg" width="600" height="400" viewBox="0 0 600 400"><rect width="100%" height="100%" fill="#4CAF50"/><path fill="#FFFFFF" d="M191.17 166.92h8.02l-17.06 54.95h-9.24l-12.01-37.54q-.49-1.37-.91-3.35-.22.95-.45 1.79-.23.83-.5 1.56l-12.12 37.54h-9.27l-17.03-54.95h8.56q1.33 0 2.22.63t1.19 1.69l9.35 32.87q.31 1.22.59 2.64.29 1.43.59 2.98.31-1.59.67-3 .36-1.4.78-2.62l10.79-32.87q.3-.87 1.19-1.6.9-.72 2.19-.72h3q1.33 0 2.17.65.83.64 1.25 1.67l10.76 32.87q.79 2.36 1.44 5.43.49-3 1.1-5.43l9.35-32.87q.23-.95 1.16-1.63.93-.69 2.22-.69m22.69-1.52v21.66q2.28-2.13 5.01-3.46 2.74-1.33 6.43-1.33 3.19 0 5.66 1.09 2.47 1.08 4.12 3.04 1.65 1.95 2.51 4.67.85 2.72.85 5.99v24.81h-9.38v-24.81q0-3.58-1.64-5.53-1.63-1.96-4.97-1.96-2.44 0-4.56 1.1-2.13 1.1-4.03 3v28.2h-9.39V165.4zm54.07 46.4v-6.57q-4.06.19-6.84.7-2.77.51-4.44 1.31-1.68.8-2.4 1.86-.72 1.07-.72 2.32 0 2.47 1.46 3.53 1.47 1.07 3.82 1.07 2.89 0 5-1.05 2.11-1.04 4.12-3.17m-19.83-20.48-1.68-3q6.73-6.16 16.19-6.16 3.42 0 6.12 1.12t4.56 3.12q1.86 1.99 2.83 4.77.97 2.77.97 6.08v24.62h-4.26q-1.33 0-2.05-.4t-1.14-1.61l-.83-2.82q-1.49 1.33-2.89 2.34-1.41 1.01-2.93 1.69-1.52.69-3.25 1.05t-3.82.36q-2.47 0-4.56-.67-2.09-.66-3.61-1.99t-2.35-3.31q-.84-1.97-.84-4.6 0-1.48.5-2.94.49-1.46 1.61-2.79t2.91-2.51q1.78-1.18 4.39-2.05 2.6-.88 6.06-1.43t7.9-.66v-2.28q0-3.92-1.67-5.8t-4.83-1.88q-2.28 0-3.78.53t-2.64 1.2l-2.07 1.2q-.93.53-2.07.53-.99 0-1.67-.52-.69-.51-1.1-1.19m50.8 31.16q-5.09 0-7.81-2.87-2.71-2.87-2.71-7.92v-21.78h-3.99q-.76 0-1.3-.49-.53-.5-.53-1.48v-3.73l6.27-1.02 1.98-10.64q.19-.76.72-1.18t1.37-.42h4.86v12.27h10.41v6.69h-10.41v21.13q0 1.82.89 2.85.9 1.03 2.46 1.03.87 0 1.46-.21t1.02-.44q.44-.23.78-.44.35-.21.69-.21.42 0 .68.21.27.21.57.63l2.81 4.56q-2.05 1.71-4.71 2.58-2.66.88-5.51.88m41.19-35.38-2.12 3.38q-.38.61-.8.86-.42.24-1.07.24-.68 0-1.46-.38t-1.8-.85q-1.03-.48-2.34-.86t-3.1-.38q-2.77 0-4.35 1.18t-1.58 3.08q0 1.25.82 2.11.82.85 2.17 1.5t3.06 1.16 3.47 1.12q1.77.61 3.48 1.39t3.06 1.97q1.35 1.2 2.16 2.87.82 1.67.82 4.03 0 2.81-1.01 5.19-1 2.37-2.98 4.1-1.97 1.73-4.88 2.7t-6.71.97q-2.01 0-3.93-.36t-3.69-1.01q-1.76-.65-3.27-1.52-1.5-.87-2.64-1.9l2.17-3.57q.42-.65.99-.99t1.44-.34q.88 0 1.65.49.78.5 1.81 1.07t2.41 1.06q1.39.49 3.52.49 1.67 0 2.87-.4 1.19-.39 1.97-1.04t1.14-1.5q.36-.86.36-1.77 0-1.37-.81-2.24-.82-.87-2.17-1.52t-3.08-1.16-3.53-1.12q-1.81-.61-3.54-1.42-1.72-.82-3.07-2.08-1.35-1.25-2.17-3.07-.82-1.83-.82-4.41 0-2.4.95-4.56.95-2.17 2.8-3.78 1.84-1.62 4.59-2.59 2.76-.97 6.37-.97 4.03 0 7.33 1.33 3.31 1.33 5.51 3.5m20.52 14.02h17.48l-6.68-18.28q-.5-1.21-1.03-2.88-.53-1.68-1.06-3.61-.5 1.93-1.03 3.63-.53 1.69-1.03 2.94zm13.95-34.2 21.58 54.95h-7.9q-1.33 0-2.17-.67-.83-.66-1.25-1.65l-4.1-11.21h-22.77l-4.1 11.21q-.3.88-1.18 1.6-.87.72-2.16.72h-7.98l21.62-54.95zm35.19 27.36v17.48q1.59 1.94 3.47 2.74t4.09.8q2.13 0 3.84-.8t2.9-2.43q1.2-1.64 1.85-4.13.64-2.49.64-5.87 0-3.42-.55-5.79-.55-2.38-1.57-3.86-1.03-1.48-2.49-2.17-1.47-.68-3.33-.68-2.92 0-4.98 1.24-2.05 1.23-3.87 3.47m-1.26-9.69.76 3.61q2.4-2.7 5.44-4.37t7.14-1.67q3.19 0 5.83 1.33 2.65 1.33 4.56 3.86 1.92 2.52 2.97 6.23 1.04 3.7 1.04 8.49 0 4.37-1.17 8.1-1.18 3.72-3.37 6.46-2.18 2.73-5.28 4.27t-6.93 1.54q-3.27 0-5.59-1.01-2.32-1-4.14-2.79v15.96h-9.39v-51.72h5.74q1.82 0 2.39 1.71m44.43 9.69v17.48q1.59 1.94 3.47 2.74t4.09.8q2.12 0 3.84-.8 1.71-.8 2.9-2.43 1.2-1.64 1.85-4.13.64-2.49.64-5.87 0-3.42-.55-5.79-.55-2.38-1.58-3.86-1.02-1.48-2.49-2.17-1.46-.68-3.32-.68-2.93 0-4.98 1.24-2.05 1.23-3.87 3.47m-1.26-9.69.76 3.61q2.4-2.7 5.43-4.37 3.05-1.67 7.15-1.67 3.19 0 5.83 1.33t4.56 3.86q1.92 2.52 2.97 6.23 1.04 3.7 1.04 8.49 0 4.37-1.18 8.1-1.17 3.72-3.36 6.46-2.18 2.73-5.28 4.27t-6.94 1.54q-3.26 0-5.58-1.01-2.32-1-4.14-2.79v15.96h-9.39v-51.72h5.74q1.82 0 2.39 1.71"/></svg>