<svg xmlns="http://www.w3.org/2000/svg" width="600" height="400" viewBox="0 0 600 400"><rect width="100%" height="100%" fill="#EE4D2D"/><path fill="#FFFFFF" d="m155.8 174.29-2.34 4.44q-.43.74-.9 1.07t-1.17.33q-.74 0-1.59-.54-.86-.54-2.05-1.21-1.19-.66-2.78-1.2-1.6-.55-3.76-.55-1.96 0-3.43.48-1.47.47-2.47 1.31t-1.49 2.01-.49 2.57q0 1.79 1 2.98t2.64 2.03q1.65.84 3.75 1.5 2.09.67 4.3 1.42 2.2.75 4.31 1.75 2.1 1 3.74 2.52 1.65 1.52 2.64 3.73 1 2.2 1 5.35 0 3.43-1.17 6.43-1.17 2.99-3.43 5.21t-5.52 3.5q-3.25 1.28-7.45 1.28-2.42 0-4.76-.47-2.35-.48-4.5-1.35-2.15-.88-4.04-2.1-1.89-1.23-3.36-2.73l2.77-4.52q.34-.49.9-.82.57-.33 1.19-.33.88 0 1.9.72 1.01.71 2.41 1.59 1.4.87 3.27 1.59 1.88.72 4.5.72 4.03 0 6.23-1.91 2.21-1.91 2.21-5.48 0-1.99-1-3.25t-2.64-2.12q-1.65-.86-3.75-1.45-2.1-.6-4.27-1.3t-4.27-1.68-3.74-2.55q-1.65-1.58-2.65-3.94-.99-2.36-.99-5.83 0-2.76 1.1-5.39 1.1-2.62 3.2-4.65t5.18-3.26q3.08-1.22 7.07-1.22 4.48 0 8.26 1.4t6.44 3.92m16.38-6.16v19.95q2.1-1.96 4.62-3.19 2.52-1.22 5.92-1.22 2.94 0 5.21 1 2.28.99 3.8 2.8 1.52 1.8 2.31 4.3t.79 5.51v22.86h-8.65v-22.86q0-3.29-1.5-5.09-1.51-1.8-4.59-1.8-2.24 0-4.2 1.01-1.96 1.02-3.71 2.77v25.97h-8.64v-52.01zm46.73 15.54q3.99 0 7.26 1.29 3.27 1.3 5.6 3.68t3.59 5.81 1.26 7.66q0 4.27-1.26 7.7t-3.59 5.85q-2.33 2.41-5.6 3.71t-7.26 1.3q-4.03 0-7.32-1.3t-5.62-3.71q-2.32-2.42-3.6-5.85t-1.28-7.7q0-4.23 1.28-7.66t3.6-5.81q2.33-2.38 5.62-3.68 3.29-1.29 7.32-1.29m0 30.34q4.48 0 6.63-3.01t2.15-8.82-2.15-8.85q-2.15-3.05-6.63-3.05-4.55 0-6.74 3.07-2.19 3.06-2.19 8.83 0 5.78 2.19 8.81 2.19 3.02 6.74 3.02m32.97-19.28v16.1q1.47 1.78 3.2 2.52 1.73.73 3.76.73 1.96 0 3.54-.73 1.57-.74 2.67-2.24 1.11-1.51 1.7-3.8.6-2.29.6-5.41 0-3.15-.51-5.33-.51-2.19-1.45-3.56-.95-1.36-2.3-1.99-1.34-.63-3.06-.63-2.69 0-4.58 1.14-1.89 1.13-3.57 3.2m-1.16-8.93.7 3.33q2.21-2.49 5.01-4.03t6.58-1.54q2.94 0 5.37 1.23 2.43 1.22 4.2 3.55t2.73 5.74.96 7.82q0 4.03-1.08 7.46-1.09 3.43-3.1 5.95t-4.87 3.94q-2.85 1.42-6.38 1.42-3.01 0-5.15-.93-2.13-.93-3.81-2.58v14.71h-8.65v-47.64h5.29q1.68 0 2.2 1.57m39.1 12.25h16.31q0-1.68-.48-3.16-.47-1.49-1.41-2.61-.95-1.12-2.4-1.77t-3.38-.65q-3.74 0-5.9 2.14-2.15 2.13-2.74 6.05m22.05 5.22h-22.23q.21 2.76.98 4.78.77 2.01 2.03 3.32t2.99 1.96q1.74.65 3.84.65t3.62-.49 2.66-1.09q1.14-.59 1.99-1.08.86-.49 1.67-.49 1.08 0 1.61.8l2.48 3.15q-1.43 1.68-3.22 2.82-1.78 1.14-3.73 1.82-1.94.68-3.95.97-2.01.28-3.9.28-3.75 0-6.97-1.25-3.22-1.24-5.6-3.67-2.38-2.44-3.74-6.02-1.37-3.59-1.37-8.32 0-3.67 1.19-6.91t3.41-5.63q2.23-2.4 5.43-3.8t7.23-1.4q3.39 0 6.26 1.08 2.87 1.09 4.94 3.17 2.06 2.08 3.23 5.11 1.18 3.03 1.18 6.91 0 1.96-.42 2.65-.42.68-1.61.68m15.33-5.22h16.31q0-1.68-.48-3.16-.47-1.49-1.41-2.61-.95-1.12-2.4-1.77t-3.38-.65q-3.74 0-5.9 2.14-2.15 2.13-2.74 6.05m22.05 5.22h-22.23q.21 2.76.98 4.78.77 2.01 2.03 3.32t2.99 1.96q1.74.65 3.84.65t3.62-.49 2.66-1.09q1.14-.59 1.99-1.08.86-.49 1.67-.49 1.08 0 1.61.8l2.48 3.15q-1.43 1.68-3.22 2.82-1.78 1.14-3.73 1.82-1.94.68-3.95.97-2.01.28-3.9.28-3.75 0-6.97-1.25-3.22-1.24-5.6-3.67-2.38-2.44-3.74-6.02-1.37-3.59-1.37-8.32 0-3.67 1.19-6.91t3.41-5.63q2.23-2.4 5.43-3.8t7.23-1.4q3.39 0 6.26 1.08 2.87 1.09 4.94 3.17 2.06 2.08 3.23 5.11 1.18 3.03 1.18 6.91 0 1.96-.42 2.65-.42.68-1.61.68m37.52-2.24h16.1l-6.16-16.84q-.46-1.12-.95-2.66t-.98-3.32q-.45 1.78-.94 3.34t-.95 2.71zm12.84-31.5 19.88 50.61h-7.28q-1.22 0-1.99-.61-.77-.62-1.16-1.53l-3.78-10.32h-20.96L380.54 218q-.28.81-1.09 1.47-.8.67-1.99.67h-7.35l19.91-50.61zm34.55 25.44h7.03q2.59 0 4.52-.64 1.92-.65 3.2-1.86t1.91-2.94.63-3.87q0-2.03-.63-3.67-.63-1.65-1.89-2.8-1.26-1.16-3.19-1.77-1.92-.61-4.55-.61h-7.03zm-9.42-25.44h16.45q5.08 0 8.79 1.19t6.12 3.32q2.42 2.14 3.59 5.11 1.17 2.98 1.17 6.51 0 3.68-1.22 6.74-1.23 3.06-3.68 5.27-2.45 2.2-6.14 3.43-3.69 1.22-8.63 1.22h-7.03v17.82h-9.42zm52.78 0v50.61h-9.45v-50.61z"/></svg>