<svg xmlns="http://www.w3.org/2000/svg" width="1920" height="400" viewBox="0 0 1920 400"><rect width="100%" height="100%" fill="#0EA5E9"/><path fill="#FFFFFF" d="M404.835 222.485h16.73q4.61 0 7.75-1.11t5.01-2.95q1.88-1.85 2.71-4.31t.83-5.23q0-2.89-.92-5.19-.93-2.31-2.9-3.94-1.96-1.63-5.07-2.49-3.1-.86-7.47-.86h-16.67zm14.09-63.23h-14.09v25.71h13.16q8.49 0 12.83-3.08 4.33-3.07 4.33-9.77 0-6.95-3.93-9.91-3.94-2.95-12.3-2.95m-30.63-12.79h30.63q8.73 0 14.94 1.66t10.18 4.74q3.97 3.07 5.81 7.44 1.85 4.37 1.85 9.84 0 3.13-.93 5.99-.92 2.86-2.86 5.36-1.93 2.49-4.92 4.52-2.98 2.03-7.1 3.44 18.33 4.12 18.33 19.8 0 5.66-2.16 10.46-2.15 4.79-6.27 8.27-4.12 3.47-10.15 5.44-6.02 1.97-13.77 1.97h-33.58zm111.93 72.63v-10.64q-6.58.31-11.07 1.14t-7.2 2.12q-2.7 1.29-3.87 3.02-1.17 1.72-1.17 3.75 0 4 2.37 5.72t6.18 1.72q4.67 0 8.09-1.69 3.41-1.69 6.67-5.14m-32.1-33.15-2.71-4.85q10.89-9.97 26.2-9.97 5.53 0 9.9 1.82 4.37 1.81 7.38 5.04t4.58 7.72 1.57 9.84v39.85h-6.89q-2.15 0-3.32-.65-1.17-.64-1.84-2.61l-1.36-4.55q-2.4 2.15-4.67 3.78-2.28 1.63-4.74 2.74t-5.25 1.69q-2.8.58-6.19.58-3.99 0-7.38-1.07-3.38-1.08-5.84-3.23t-3.81-5.35-1.35-7.44q0-2.4.8-4.77t2.61-4.52 4.7-4.06q2.89-1.9 7.11-3.32 4.21-1.41 9.81-2.31 5.59-.89 12.79-1.07v-3.69q0-6.34-2.71-9.38-2.7-3.04-7.81-3.04-3.69 0-6.12.86t-4.27 1.93q-1.85 1.08-3.35 1.94-1.51.86-3.35.86-1.6 0-2.71-.83t-1.78-1.94m74.35-10.88 1.04 4.98q1.91-1.91 4.03-3.54t4.49-2.76q2.37-1.14 5.08-1.79 2.7-.64 5.9-.64 5.17 0 9.16 1.75 4 1.75 6.68 4.92 2.67 3.17 4.06 7.56 1.38 4.4 1.38 9.69v40.16h-15.19v-40.16q0-5.78-2.65-8.95-2.64-3.16-8.05-3.16-3.94 0-7.38 1.78-3.45 1.78-6.52 4.86v45.63h-15.19v-63.1h9.28q2.96 0 3.88 2.77m69.37 0 1.05 4.98q1.9-1.91 4.02-3.54 2.13-1.63 4.49-2.76 2.37-1.14 5.08-1.79 2.7-.64 5.9-.64 5.17 0 9.17 1.75 3.99 1.75 6.67 4.92 2.67 3.17 4.06 7.56 1.38 4.4 1.38 9.69v40.16h-15.19v-40.16q0-5.78-2.64-8.95-2.65-3.16-8.06-3.16-3.94 0-7.38 1.78t-6.52 4.86v45.63h-15.19v-63.1h9.29q2.95 0 3.87 2.77m68.2 21.52h28.66q0-2.95-.83-5.56-.83-2.62-2.49-4.58-1.66-1.97-4.21-3.11t-5.93-1.14q-6.59 0-10.37 3.75-3.78 3.76-4.83 10.64m38.75 9.17h-39.05q.37 4.86 1.72 8.39 1.35 3.54 3.57 5.84 2.21 2.31 5.25 3.45 3.05 1.14 6.74 1.14t6.36-.87q2.68-.86 4.68-1.9 2-1.05 3.5-1.91 1.51-.86 2.92-.86 1.91 0 2.83 1.42l4.37 5.53q-2.52 2.95-5.66 4.95-3.13 2-6.55 3.2-3.41 1.2-6.95 1.69-3.53.49-6.85.49-6.58 0-12.24-2.18t-9.84-6.46q-4.18-4.27-6.58-10.58-2.4-6.3-2.4-14.6 0-6.46 2.09-12.15t6-9.9q3.9-4.21 9.53-6.67t12.7-2.46q5.96 0 11.01 1.9 5.04 1.91 8.67 5.57t5.69 8.98 2.06 12.14q0 3.45-.74 4.65t-2.83 1.2m28.35-29.65.92 7.14q2.96-5.66 7.01-8.89 4.06-3.23 9.6-3.23 4.37 0 7.01 1.91l-.98 11.38q-.31 1.1-.9 1.56-.58.47-1.56.47-.93 0-2.74-.31-1.82-.31-3.54-.31-2.52 0-4.49.74-1.96.74-3.53 2.12t-2.77 3.35-2.25 4.49v38.87h-15.19v-63.1h8.92q2.34 0 3.26.83t1.23 2.98m143.73 14.83q0 9.77-3.26 17.95t-9.17 14.09q-5.9 5.9-14.2 9.16-8.31 3.26-18.45 3.26h-33.89v-88.93h33.89q10.14 0 18.45 3.29 8.3 3.29 14.2 9.16 5.91 5.88 9.17 14.06t3.26 17.96m-16.98 0q0-7.32-1.93-13.13-1.94-5.82-5.6-9.84-3.66-4.03-8.86-6.19-5.19-2.15-11.71-2.15h-17.28v62.61h17.28q6.52 0 11.71-2.15 5.2-2.16 8.86-6.18 3.66-4.03 5.6-9.84 1.93-5.82 1.93-13.13m29.65-18.64h15.25v63.1h-15.25zm17.34-18.39q0 1.97-.8 3.69t-2.12 3.02q-1.32 1.29-3.11 2.06-1.78.77-3.81.77-1.97 0-3.72-.77t-3.05-2.06q-1.29-1.3-2.06-3.02t-.77-3.69q0-2.03.77-3.81t2.06-3.08q1.3-1.29 3.05-2.06 1.75-.76 3.72-.76 2.03 0 3.81.76 1.79.77 3.11 2.06 1.32 1.3 2.12 3.08t.8 3.81m55.35 25.22-3.45 5.47q-.61.99-1.29 1.38-.67.4-1.72.4-1.11 0-2.37-.61-1.26-.62-2.92-1.38-1.66-.77-3.78-1.39-2.12-.61-5.01-.61-4.49 0-7.04 1.9-2.56 1.91-2.56 4.98 0 2.03 1.33 3.42 1.32 1.38 3.5 2.43 2.18 1.04 4.95 1.87t5.63 1.82q2.86.98 5.63 2.24 2.76 1.26 4.95 3.2 2.18 1.94 3.5 4.64 1.33 2.71 1.33 6.52 0 4.55-1.63 8.4-1.63 3.84-4.83 6.64t-7.91 4.37q-4.7 1.56-10.85 1.56-3.26 0-6.37-.58-3.1-.58-5.96-1.63t-5.29-2.46-4.27-3.07l3.5-5.79q.68-1.04 1.6-1.59.92-.56 2.34-.56 1.41 0 2.67.8t2.92 1.72q1.66.93 3.91 1.72 2.24.8 5.69.8 2.7 0 4.64-.64 1.94-.65 3.2-1.69 1.26-1.05 1.84-2.43.59-1.39.59-2.86 0-2.22-1.32-3.63-1.33-1.41-3.51-2.46t-4.98-1.88-5.72-1.81-5.72-2.31q-2.8-1.32-4.98-3.35t-3.51-4.98q-1.32-2.95-1.32-7.13 0-3.88 1.54-7.38 1.54-3.51 4.52-6.12 2.98-2.62 7.44-4.18 4.46-1.57 10.3-1.57 6.52 0 11.87 2.15t8.92 5.66m27.3 11.62v28.29q2.59 3.14 5.63 4.43 3.05 1.29 6.61 1.29 3.45 0 6.21-1.29 2.77-1.29 4.71-3.94 1.94-2.64 2.98-6.67 1.05-4.03 1.05-9.5 0-5.54-.89-9.38-.9-3.84-2.56-6.24t-4.02-3.51q-2.37-1.1-5.39-1.1-4.73 0-8.05 1.99-3.32 2-6.28 5.63m-2.02-15.68 1.23 5.84q3.87-4.37 8.79-7.07 4.92-2.71 11.56-2.71 5.17 0 9.44 2.15 4.28 2.16 7.38 6.25 3.11 4.09 4.8 10.08 1.69 6 1.69 13.75 0 7.07-1.91 13.1-1.9 6.03-5.44 10.45-3.54 4.43-8.55 6.92t-11.22 2.49q-5.29 0-9.04-1.63t-6.71-4.52v25.83h-15.19v-83.7h9.29q2.95 0 3.88 2.77m90.03 44.03v-10.64q-6.58.31-11.07 1.14t-7.19 2.12q-2.71 1.29-3.88 3.02-1.17 1.72-1.17 3.75 0 4 2.37 5.72t6.18 1.72q4.68 0 8.09-1.69t6.67-5.14m-32.1-33.15-2.71-4.85q10.89-9.97 26.2-9.97 5.54 0 9.9 1.82 4.37 1.81 7.38 5.04 3.02 3.23 4.58 7.72 1.57 4.49 1.57 9.84v39.85h-6.89q-2.15 0-3.32-.65-1.16-.64-1.84-2.61l-1.35-4.55q-2.4 2.15-4.68 3.78-2.27 1.63-4.73 2.74t-5.26 1.69-6.18.58q-4 0-7.38-1.07-3.39-1.08-5.85-3.23t-3.81-5.35-1.35-7.44q0-2.4.8-4.77t2.61-4.52q1.82-2.15 4.71-4.06 2.89-1.9 7.1-3.32 4.21-1.41 9.81-2.31 5.6-.89 12.79-1.07v-3.69q0-6.34-2.7-9.38-2.71-3.04-7.82-3.04-3.69 0-6.11.86-2.43.86-4.28 1.93-1.84 1.08-3.35 1.94t-3.35.86q-1.6 0-2.71-.83t-1.78-1.94m74.6-9.84.92 7.14q2.95-5.66 7.01-8.89t9.6-3.23q4.36 0 7.01 1.91l-.99 11.38q-.31 1.1-.89 1.56-.58.47-1.57.47-.92 0-2.73-.31-1.82-.31-3.54-.31-2.52 0-4.49.74t-3.54 2.12q-1.56 1.38-2.76 3.35t-2.25 4.49v38.87h-15.19v-63.1h8.92q2.34 0 3.26.83t1.23 2.98m65.8 42.99v-10.64q-6.58.31-11.07 1.14t-7.19 2.12q-2.71 1.29-3.88 3.02-1.17 1.72-1.17 3.75 0 4 2.37 5.72t6.18 1.72q4.68 0 8.09-1.69t6.67-5.14m-32.1-33.15-2.71-4.85q10.89-9.97 26.2-9.97 5.54 0 9.9 1.82 4.37 1.81 7.38 5.04 3.02 3.23 4.59 7.72 1.56 4.49 1.56 9.84v39.85h-6.88q-2.16 0-3.32-.65-1.17-.64-1.85-2.61l-1.35-4.55q-2.4 2.15-4.68 3.78-2.27 1.63-4.73 2.74t-5.26 1.69-6.18.58q-4 0-7.38-1.07-3.38-1.08-5.84-3.23t-3.82-5.35q-1.35-3.2-1.35-7.44 0-2.4.8-4.77t2.61-4.52q1.82-2.15 4.71-4.06 2.89-1.9 7.1-3.32 4.21-1.41 9.81-2.31 5.6-.89 12.79-1.07v-3.69q0-6.34-2.7-9.38-2.71-3.04-7.81-3.04-3.69 0-6.12.86t-4.28 1.93q-1.84 1.08-3.35 1.94t-3.35.86q-1.6 0-2.71-.83-1.1-.83-1.78-1.94m110.02 35.8h35.55v13.65h-52.09v-88.93h16.54zm45.45-49.45h15.25v63.1h-15.25zm17.34-18.39q0 1.97-.79 3.69-.8 1.72-2.13 3.02-1.32 1.29-3.1 2.06-1.79.77-3.82.77-1.96 0-3.72-.77-1.75-.77-3.04-2.06-1.29-1.3-2.06-3.02t-.77-3.69q0-2.03.77-3.81t2.06-3.08q1.29-1.29 3.04-2.06 1.76-.76 3.72-.76 2.03 0 3.82.76 1.78.77 3.1 2.06 1.33 1.3 2.13 3.08.79 1.78.79 3.81m26.57 21.16 1.05 4.98q1.9-1.91 4.03-3.54 2.12-1.63 4.49-2.76 2.36-1.14 5.07-1.79 2.71-.64 5.9-.64 5.17 0 9.17 1.75 3.99 1.75 6.67 4.92t4.06 7.56q1.38 4.4 1.38 9.69v40.16h-15.19v-40.16q0-5.78-2.64-8.95-2.65-3.16-8.06-3.16-3.93 0-7.38 1.78-3.44 1.78-6.52 4.86v45.63h-15.19v-63.1h9.29q2.95 0 3.87 2.77m56.21-31.06h15.19v52.34h2.83q1.54 0 2.43-.4t1.82-1.63l15.68-19.37q.98-1.3 2.18-1.97 1.2-.68 3.11-.68h13.9l-19.62 23.43q-2.09 2.77-4.55 4.25 1.29.92 2.3 2.15 1.02 1.23 1.94 2.64l21.03 30.63h-13.71q-1.78 0-3.08-.58-1.29-.59-2.15-2.13l-16.11-23.92q-.86-1.41-1.78-1.84-.93-.44-2.77-.44h-3.45v28.91h-15.19zm107.69 35.12-3.44 5.47q-.62.99-1.3 1.38-.67.4-1.72.4-1.1 0-2.36-.61-1.27-.62-2.93-1.38-1.66-.77-3.78-1.39-2.12-.61-5.01-.61-4.49 0-7.04 1.9-2.55 1.91-2.55 4.98 0 2.03 1.32 3.42 1.32 1.38 3.5 2.43 2.19 1.04 4.95 1.87 2.77.83 5.63 1.82 2.86.98 5.63 2.24t4.95 3.2 3.5 4.64q1.33 2.71 1.33 6.52 0 4.55-1.63 8.4-1.63 3.84-4.83 6.64t-7.9 4.37q-4.71 1.56-10.86 1.56-3.26 0-6.36-.58-3.11-.58-5.97-1.63t-5.29-2.46-4.27-3.07l3.5-5.79q.68-1.04 1.6-1.59.92-.56 2.34-.56 1.41 0 2.67.8 1.27.8 2.93 1.72 1.66.93 3.9 1.72 2.25.8 5.69.8 2.71 0 4.64-.64 1.94-.65 3.2-1.69 1.26-1.05 1.85-2.43.58-1.39.58-2.86 0-2.22-1.32-3.63t-3.51-2.46q-2.18-1.05-4.98-1.88t-5.72-1.81-5.72-2.31q-2.8-1.32-4.98-3.35t-3.5-4.98q-1.33-2.95-1.33-7.13 0-3.88 1.54-7.38 1.54-3.51 4.52-6.12 2.98-2.62 7.44-4.18 4.46-1.57 10.3-1.57 6.52 0 11.87 2.15t8.92 5.66"/></svg>