<svg xmlns="http://www.w3.org/2000/svg" width="600" height="400" viewBox="0 0 600 400"><rect width="100%" height="100%" fill="#FFE600"/><path fill="#333333" d="M161.175 180.09h5.68v40.49h-6.63v-26.15q0-1.57.16-3.39l-12.23 22.99q-.87 1.65-2.66 1.65h-1.07q-1.79 0-2.66-1.65l-12.37-23.07q.08.92.14 1.82.05.89.05 1.65v26.15h-6.63v-40.49h5.68q.51 0 .87.03t.66.14q.29.11.53.36.24.26.46.68l12.13 22.48q.47.9.88 1.85.4.95.8 1.96.39-1.04.81-2 .42-.97.89-1.87l11.96-22.42q.22-.42.48-.68.25-.25.54-.36.3-.11.66-.14t.87-.03m19.07 22.82h13.04q0-1.34-.37-2.53-.38-1.19-1.14-2.09-.75-.89-1.92-1.41-1.16-.52-2.7-.52-2.99 0-4.72 1.71-1.72 1.71-2.19 4.84m17.64 4.17h-17.78q.16 2.22.78 3.83t1.62 2.66q1.01 1.05 2.4 1.56 1.38.52 3.06.52t2.9-.39 2.13-.87q.91-.47 1.6-.87.68-.39 1.33-.39.86 0 1.28.65l1.99 2.52q-1.15 1.34-2.57 2.25-1.43.91-2.99 1.46-1.55.54-3.16.77-1.61.22-3.12.22-3 0-5.57-.99-2.58-1-4.48-2.94-1.91-1.95-3-4.82t-1.09-6.65q0-2.94.95-5.53t2.73-4.51 4.34-3.04 5.78-1.12q2.72 0 5.01.87 2.3.87 3.95 2.54 1.65 1.66 2.59 4.08.94 2.43.94 5.53 0 1.57-.34 2.12-.33.54-1.28.54m12.9-13.49.42 3.25q1.35-2.58 3.2-4.05 1.84-1.47 4.36-1.47 1.99 0 3.2.87l-.45 5.18q-.14.5-.41.71-.26.21-.71.21-.42 0-1.25-.14-.82-.14-1.61-.14-1.15 0-2.04.34-.9.33-1.61.96-.72.63-1.26 1.53-.55.9-1.02 2.04v17.7h-6.92v-28.73h4.06q1.06 0 1.48.38t.56 1.36m37.19 1.82-1.82 2.52q-.31.39-.6.61-.3.23-.86.23-.53 0-1.03-.32-.51-.33-1.21-.73-.7-.41-1.66-.73-.97-.32-2.4-.32-1.82 0-3.19.66-1.37.65-2.28 1.89-.91 1.23-1.36 2.98t-.45 3.96q0 2.3.49 4.09t1.42 3.01q.92 1.22 2.24 1.85 1.31.63 2.96.63 1.66 0 2.68-.41t1.72-.9 1.22-.89q.52-.41 1.16-.41.84 0 1.26.65l1.99 2.52q-1.15 1.34-2.49 2.25-1.35.91-2.79 1.46-1.44.54-2.97.77-1.52.22-3.04.22-2.66 0-5.01-.99-2.35-1-4.11-2.9-1.77-1.91-2.79-4.66-1.02-2.76-1.02-6.29 0-3.16.91-5.87.91-2.7 2.67-4.67 1.77-1.98 4.37-3.1t5.99-1.12q3.22 0 5.64 1.04 2.43 1.04 4.36 2.97m19.77 17.75v-4.84q-3 .14-5.04.51-2.05.38-3.28.97t-1.76 1.37q-.54.79-.54 1.71 0 1.82 1.08 2.6 1.08.79 2.82.79 2.12 0 3.68-.77 1.55-.77 3.04-2.34m-14.62-15.09-1.23-2.21q4.95-4.54 11.93-4.54 2.52 0 4.5.83 1.99.82 3.36 2.29 1.38 1.47 2.09 3.52.71 2.04.71 4.48v18.14h-3.13q-.98 0-1.51-.29-.54-.3-.84-1.19l-.62-2.08q-1.09.98-2.13 1.73-1.03.74-2.15 1.24-1.12.51-2.4.77-1.27.27-2.81.27-1.82 0-3.36-.49t-2.66-1.47-1.74-2.44q-.61-1.45-.61-3.39 0-1.09.36-2.17.36-1.07 1.19-2.05t2.14-1.85q1.32-.87 3.24-1.51 1.91-.65 4.46-1.05 2.55-.41 5.83-.49v-1.68q0-2.89-1.24-4.27-1.23-1.39-3.55-1.39-1.68 0-2.79.39-1.1.39-1.94.88t-1.53.89q-.69.39-1.53.39-.72 0-1.23-.38-.5-.38-.81-.88m45.89 14v-12.88q-1.17-1.43-2.56-2.02t-2.98-.59q-1.57 0-2.83.59t-2.16 1.78q-.89 1.19-1.37 3.02-.47 1.84-.47 4.33 0 2.52.4 4.27.41 1.75 1.16 2.86.76 1.1 1.85 1.59t2.44.49q2.15 0 3.67-.89 1.51-.9 2.85-2.55m0-33.1h6.92v41.61h-4.23q-1.37 0-1.74-1.26l-.58-2.77q-1.74 1.99-3.99 3.22-2.26 1.23-5.25 1.23-2.36 0-4.32-.98t-3.37-2.84-2.18-4.61q-.77-2.74-.77-6.27 0-3.19.86-5.94.87-2.74 2.5-4.76 1.62-2.01 3.89-3.15 2.27-1.13 5.09-1.13 2.41 0 4.12.76 1.71.75 3.05 2.04zm26.46 12.43q3.19 0 5.81 1.04t4.48 2.94 2.87 4.65q1.01 2.74 1.01 6.13 0 3.42-1.01 6.16t-2.87 4.68q-1.86 1.93-4.48 2.96-2.62 1.04-5.81 1.04-3.22 0-5.85-1.04-2.63-1.03-4.49-2.96-1.87-1.94-2.89-4.68t-1.02-6.16q0-3.39 1.02-6.13 1.02-2.75 2.89-4.65 1.86-1.9 4.49-2.94t5.85-1.04m0 24.28q3.59 0 5.31-2.41t1.72-7.05q0-4.65-1.72-7.09-1.72-2.43-5.31-2.43-3.64 0-5.39 2.45t-1.75 7.07 1.75 7.04 5.39 2.42m41.69-1.32h16.19v6.22h-23.72v-40.49h7.53zm20.7-22.51h6.94v28.73h-6.94zm7.89-8.37q0 .9-.36 1.68-.37.78-.97 1.37t-1.41.94-1.74.35q-.89 0-1.69-.35t-1.39-.94-.94-1.37-.35-1.68q0-.92.35-1.74.35-.81.94-1.4.59-.58 1.39-.93t1.69-.35q.93 0 1.74.35t1.41.93q.6.59.97 1.4.36.82.36 1.74m26.55 8.37h5.46l-11.4 28.73h-6.27l-11.4-28.73h5.71q.79 0 1.31.37.51.36.68.92l5.55 15.34q.44 1.35.78 2.64.34 1.28.59 2.57.28-1.29.61-2.57.34-1.29.82-2.64l5.65-15.34q.2-.56.7-.92.51-.37 1.21-.37m15.23 1.74.42 3.25q1.34-2.58 3.19-4.05t4.37-1.47q1.99 0 3.19.87l-.45 5.18q-.14.5-.4.71-.27.21-.72.21-.42 0-1.24-.14-.83-.14-1.61-.14-1.15 0-2.05.34-.89.33-1.61.96-.71.63-1.26 1.53-.54.9-1.02 2.04v17.7h-6.92v-28.73h4.06q1.07 0 1.49.38t.56 1.36m20.24 9.32h13.05q0-1.34-.38-2.53t-1.13-2.09q-.76-.89-1.92-1.41t-2.7-.52q-3 0-4.72 1.71t-2.2 4.84m17.64 4.17h-17.78q.17 2.22.79 3.83.61 1.61 1.62 2.66t2.39 1.56q1.39.52 3.07.52t2.9-.39 2.13-.87q.91-.47 1.59-.87.69-.39 1.33-.39.87 0 1.29.65l1.99 2.52q-1.15 1.34-2.58 2.25t-2.98 1.46q-1.55.54-3.16.77-1.61.22-3.13.22-2.99 0-5.57-.99-2.57-1-4.48-2.94-1.9-1.95-2.99-4.82-1.1-2.87-1.1-6.65 0-2.94.96-5.53.95-2.59 2.73-4.51 1.77-1.92 4.34-3.04 2.56-1.12 5.78-1.12 2.71 0 5.01.87t3.95 2.54q1.65 1.66 2.59 4.08.94 2.43.94 5.53 0 1.57-.34 2.12-.34.54-1.29.54"/></svg>