<svg xmlns="http://www.w3.org/2000/svg" width="600" height="400" viewBox="0 0 600 400"><rect width="100%" height="100%" fill="#E4405F"/><path fill="#FFFFFF" d="M135.225 162.955v59.29h-11.07v-59.29zm20.41 19.07.7 3.32q1.27-1.27 2.69-2.36 1.41-1.08 2.99-1.84t3.38-1.19q1.81-.43 3.94-.43 3.44 0 6.11 1.17 2.66 1.16 4.45 3.28 1.78 2.11 2.7 5.04t.92 6.46v26.77h-10.12v-26.77q0-3.86-1.77-5.97-1.76-2.11-5.37-2.11-2.62 0-4.92 1.19-2.29 1.19-4.34 3.24v30.42h-10.13v-42.07h6.19q1.97 0 2.58 1.85m65.44 2.7-2.3 3.65q-.41.66-.86.93-.45.26-1.15.26-.73 0-1.57-.41t-1.95-.92-2.52-.92q-1.42-.41-3.34-.41-3 0-4.7 1.27t-1.7 3.32q0 1.35.88 2.28.88.92 2.34 1.61 1.45.7 3.3 1.26 1.84.55 3.75 1.21 1.91.65 3.75 1.49 1.85.84 3.3 2.13 1.46 1.29 2.34 3.1.88 1.8.88 4.34 0 3.04-1.09 5.6-1.08 2.56-3.21 4.43-2.14 1.86-5.27 2.91-3.14 1.05-7.24 1.05-2.17 0-4.24-.39t-3.98-1.09-3.53-1.64-2.85-2.05l2.34-3.85q.45-.7 1.07-1.07.61-.37 1.56-.37.94 0 1.78.53.84.54 1.95 1.15 1.1.62 2.6 1.15t3.79.53q1.81 0 3.1-.43t2.13-1.13q.84-.69 1.23-1.61.39-.93.39-1.91 0-1.48-.88-2.42t-2.34-1.64q-1.45-.7-3.32-1.25t-3.81-1.21q-1.95-.66-3.82-1.54-1.86-.88-3.32-2.23-1.45-1.36-2.33-3.32-.89-1.97-.89-4.76 0-2.58 1.03-4.92 1.02-2.34 3.01-4.08t4.96-2.79q2.98-1.04 6.87-1.04 4.35 0 7.91 1.43 3.57 1.44 5.95 3.77m22.1 38.18q-5.5 0-8.43-3.1t-2.93-8.55v-23.49h-4.3q-.82 0-1.4-.53-.57-.54-.57-1.6v-4.02l6.76-1.11 2.14-11.48q.2-.82.77-1.27.58-.45 1.48-.45h5.25v13.24h11.23v7.22h-11.23v22.79q0 1.97.96 3.08.97 1.11 2.65 1.11.94 0 1.58-.23.63-.22 1.1-.47t.84-.47q.37-.23.74-.23.45 0 .74.23.29.22.61.67l3.04 4.92q-2.22 1.85-5.09 2.79-2.87.95-5.94.95m38.7-11.53v-7.09q-4.38.21-7.38.76-2.99.55-4.79 1.41-1.81.87-2.59 2.01-.78 1.15-.78 2.5 0 2.67 1.58 3.82t4.12 1.15q3.12 0 5.39-1.13 2.28-1.13 4.45-3.43m-21.4-22.09-1.8-3.24q7.25-6.64 17.46-6.64 3.69 0 6.6 1.2 2.91 1.21 4.92 3.37 2.01 2.15 3.06 5.14 1.04 2.99 1.04 6.56v26.57h-4.59q-1.43 0-2.21-.43t-1.23-1.74l-.9-3.04q-1.6 1.44-3.12 2.52-1.52 1.09-3.16 1.83t-3.5 1.13q-1.87.39-4.12.39-2.67 0-4.92-.72-2.26-.72-3.9-2.15-1.64-1.44-2.54-3.57t-.9-4.96q0-1.6.53-3.18t1.74-3.01q1.21-1.44 3.14-2.71t4.74-2.21q2.8-.95 6.53-1.54 3.74-.59 8.53-.72v-2.46q0-4.22-1.8-6.25-1.81-2.03-5.21-2.03-2.46 0-4.08.57-1.62.58-2.85 1.3-1.23.71-2.23 1.29-1.01.57-2.24.57-1.06 0-1.8-.55-.74-.56-1.19-1.29m56.17 10.9q1.89 0 3.28-.51t2.32-1.41q.92-.91 1.39-2.18t.47-2.79q0-3.11-1.86-4.94-1.87-1.82-5.6-1.82t-5.6 1.82q-1.86 1.83-1.86 4.94 0 1.48.47 2.75t1.39 2.19q.93.93 2.34 1.44 1.42.51 3.26.51m11.44 23.95q0-1.23-.74-2.01t-2.01-1.21-2.97-.64q-1.7-.2-3.61-.31-1.9-.1-3.93-.18t-3.96-.33q-1.68.95-2.73 2.22-1.04 1.27-1.04 2.95 0 1.11.55 2.07t1.76 1.66 3.14 1.09q1.93.38 4.72.38 2.82 0 4.87-.43t3.39-1.18q1.33-.76 1.94-1.81.62-1.04.62-2.27m-2.01-42.52h12.1v3.77q0 1.81-2.18 2.21l-3.77.7q.86 2.17.86 4.76 0 3.11-1.25 5.64-1.25 2.52-3.46 4.28-2.22 1.76-5.23 2.73-3.01.96-6.5.96-1.23 0-2.38-.12-1.15-.13-2.25-.33-1.97 1.19-1.97 2.66 0 1.27 1.17 1.87 1.17.59 3.09.84 1.93.25 4.39.31t5.04.26q2.59.21 5.05.72t4.38 1.62q1.93 1.11 3.1 3.01 1.17 1.91 1.17 4.9 0 2.79-1.38 5.42-1.37 2.62-3.97 4.67-2.61 2.05-6.4 3.3t-8.63 1.25q-4.76 0-8.28-.92-3.53-.92-5.86-2.46-2.34-1.54-3.49-3.55t-1.15-4.18q0-2.95 1.79-4.94 1.78-1.99 4.9-3.18-1.69-.86-2.67-2.29-.98-1.44-.98-3.78 0-.94.35-1.94.34-1.01 1.02-1.99.68-.99 1.7-1.87 1.03-.88 2.42-1.58-3.2-1.72-5.02-4.59-1.83-2.87-1.83-6.72 0-3.12 1.25-5.64t3.49-4.3q2.23-1.79 5.29-2.73 3.05-.94 6.66-.94 2.71 0 5.08.55 2.38.55 4.35 1.62m27.43 1.11.61 4.75q1.97-3.77 4.68-5.92 2.7-2.15 6.39-2.15 2.92 0 4.68 1.27l-.66 7.58q-.2.74-.59 1.05-.39.3-1.05.3-.61 0-1.82-.2-1.21-.21-2.36-.21-1.68 0-2.99.5-1.31.49-2.36 1.41t-1.84 2.23q-.8 1.32-1.5 3v25.91h-10.13v-42.07h5.95q1.55 0 2.17.56.61.55.82 1.99m43.87 28.65v-7.09q-4.39.21-7.38.76t-4.8 1.41q-1.8.87-2.58 2.01-.78 1.15-.78 2.5 0 2.67 1.58 3.82t4.12 1.15q3.12 0 5.39-1.13 2.28-1.13 4.45-3.43m-21.4-22.09-1.81-3.24q7.26-6.64 17.47-6.64 3.69 0 6.6 1.2 2.91 1.21 4.92 3.37 2.01 2.15 3.06 5.14 1.04 2.99 1.04 6.56v26.57h-4.59q-1.44 0-2.22-.43-.77-.43-1.23-1.74l-.9-3.04q-1.6 1.44-3.11 2.52-1.52 1.09-3.16 1.83t-3.51 1.13q-1.86.39-4.12.39-2.66 0-4.92-.72-2.25-.72-3.89-2.15-1.64-1.44-2.54-3.57-.91-2.13-.91-4.96 0-1.6.54-3.18.53-1.58 1.74-3.01 1.21-1.44 3.14-2.71 1.92-1.27 4.73-2.21 2.81-.95 6.54-1.54t8.53-.72v-2.46q0-4.22-1.8-6.25-1.81-2.03-5.21-2.03-2.46 0-4.08.57-1.62.58-2.85 1.3-1.23.71-2.23 1.29-1.01.57-2.24.57-1.07 0-1.8-.55-.74-.56-1.19-1.29m50.92 32.96h-10.13v-42.07h6.19q1.97 0 2.59 1.85l.65 3.11q1.11-1.23 2.32-2.25 1.21-1.03 2.58-1.76 1.38-.74 2.95-1.17 1.58-.43 3.47-.43 3.98 0 6.54 2.15t3.83 5.72q.99-2.09 2.46-3.59 1.48-1.49 3.24-2.44 1.76-.94 3.75-1.39t4-.45q3.48 0 6.19 1.06 2.71 1.07 4.55 3.12 1.85 2.05 2.81 5t.96 6.77v26.77h-10.12v-26.77q0-4.02-1.77-6.05-1.76-2.03-5.16-2.03-1.56 0-2.89.53-1.34.54-2.34 1.54t-1.58 2.52q-.57 1.52-.57 3.49v26.77h-10.17v-26.77q0-4.23-1.7-6.15-1.7-1.93-4.98-1.93-2.22 0-4.12 1.09-1.91 1.08-3.55 2.97z"/></svg>